<?xml version="1.0" encoding="UTF-8"?>
<svg width="378px" height="203px" viewBox="0 0 378 203" version="1.1" xmlns="http://www.w3.org/2000/svg" xmlns:xlink="http://www.w3.org/1999/xlink">
    <!-- Generator: Sketch 57.1 (83088) - https://sketch.com -->
    <title>logo</title>
    <desc>Created with Sketch.</desc>
    <g id="Plage-Design" stroke="none" stroke-width="1" fill="none" fill-rule="evenodd">
        <g id="Home" transform="translate(-308.000000, -487.000000)">
            <g id="heroArea" transform="translate(59.000000, 0.000000)">
                <g id="logo" transform="translate(240.391754, 466.000000)">
                    <g transform="translate(47.000000, 14.000000)" id="Group">
                        <g>
                            <text id="Plage" font-family="Futura-Medium, Futura" font-size="121.5" font-weight="400" letter-spacing="8.43749968" fill="#1A1A1A">
                                <tspan x="0" y="126">Plage</tspan>
                            </text>
                            <text id="Beauty-Salon" font-family="Futura-Medium, Futura" font-size="28.35" font-weight="400" letter-spacing="9.1125" fill="#1A1A1A">
                                <tspan x="42.9840909" y="201.125">Beauty Salon</tspan>
                            </text>
                            <path d="M8.12301136,151.875 L176.675497,151.875" id="Path-3" stroke="#000000" stroke-width="4.05"></path>
                            <path d="M286.336151,151.875 L339.135724,151.875" id="Path-4" stroke="#000000" stroke-width="4.05"></path>
                        </g>
                    </g>
                    <path d="M19.928,63.2096812 C19.6159984,63.2336813 19.3340013,63.167682 19.082,63.0116812 C18.8299987,62.8556804 18.6560005,62.6576824 18.56,62.4176812 C18.4159993,62.2736805 18.2600008,62.0576826 18.092,61.7696812 C17.9239992,61.4816797 17.8160002,61.2056825 17.768,60.9416812 C17.6719995,59.7896754 17.624,58.9496838 17.624,58.4216812 C17.624,57.7496778 17.6599996,56.8376869 17.732,55.6856812 C17.8040004,54.5816757 17.941999,53.543686 18.146,52.5716812 C18.350001,51.5996763 18.6319982,50.4056812 18.992,48.9896812 C19.1360007,48.5336789 19.2439996,48.1436828 19.316,47.8196812 C19.3880004,47.4956796 19.3880004,47.3336812 19.316,47.3336812 C19.1959994,47.3576813 18.9800016,47.6636782 18.668,48.2516812 C18.3559984,48.8396841 18.0440016,49.4696778 17.732,50.1416812 C17.5879993,50.4056812 17.4500007,50.6876797 17.318,50.9876812 C17.1859993,51.2876827 17.0480007,51.5696799 16.904,51.8336812 C16.2319966,53.3216886 14.996009,55.5776661 13.196,58.6016812 C12.9799989,58.8656825 12.6800019,59.2856783 12.296,59.8616812 C11.5519963,60.9896868 10.9400024,61.769679 10.46,62.2016812 C9.859997,62.7776841 9.260003,63.0656812 8.66,63.0656812 C8.22799784,63.0656812 7.86800144,62.9216826 7.58,62.6336812 C7.26799844,62.2496793 7.112,61.877683 7.112,61.5176812 C7.112,61.4216807 7.13599976,61.2536824 7.184,61.0136812 C7.112,60.4136782 7.17799898,59.1836905 7.382,57.3236812 C7.58600102,55.4636719 7.79599892,53.9096874 8.012,52.6616812 C8.18000084,51.5096754 8.55199712,49.6136944 9.128,46.9736812 L9.92,43.0856812 C10.0640007,42.7256794 10.2919984,42.0056866 10.604,40.9256812 L10.928,39.7376812 C10.9520001,39.305679 11.0479992,38.9876822 11.216,38.7836812 C11.3840008,38.5796802 11.5879988,38.4776812 11.828,38.4776812 C12.1640017,38.4776812 12.4519988,38.6336796 12.692,38.9456812 C13.0760019,39.3776833 13.268,39.8936782 13.268,40.4936812 C13.268,40.9736836 13.1600011,41.4656787 12.944,41.9696812 C11.8639946,44.6096944 11.0000032,48.0896596 10.352,52.4096812 C10.112,53.8256883 9.89000102,55.3436731 9.686,56.9636812 C9.48199898,58.5836893 9.42799952,59.4056812 9.524,59.4296812 C9.71600096,59.4776814 9.97999832,59.3276829 10.316,58.9796812 C10.6520017,58.6316794 10.9519987,58.1696841 11.216,57.5936812 C12.8480082,54.8816676 14.7559891,51.4017024 16.94,47.1536812 C16.9880002,47.0816808 17.515995,46.0976907 18.524,44.2016812 L19.388,42.5816812 C19.4600004,42.4376805 19.5499995,42.2756821 19.658,42.0956812 C19.7660005,41.9156803 19.8799994,41.7296821 20,41.5376812 C20.5280026,40.5536763 20.9419985,39.8216836 21.242,39.3416812 C21.5420015,38.8616788 21.7759992,38.5856815 21.944,38.5136812 C22.352002,38.5376813 22.6879987,38.6396803 22.952,38.8196812 C23.2160013,38.9996821 23.443999,39.305679 23.636,39.7376812 C23.6600001,39.8576818 23.6420003,40.0556798 23.582,40.3316812 C23.5219997,40.6076826 23.4440005,40.86568 23.348,41.1056812 C23.2999998,41.2496819 23.1860009,41.6096783 23.006,42.1856812 C22.8259991,42.7616841 22.6760006,43.3376783 22.556,43.9136812 C22.0999977,45.1136872 21.7640011,46.2776755 21.548,47.4056812 C21.3799992,48.2696855 21.200001,49.1096771 21.008,49.9256812 C20.599998,51.7736904 20.294001,53.2976752 20.09,54.4976812 C19.885999,55.6976872 19.7720001,56.7776764 19.748,57.7376812 C19.7239999,58.9616873 19.7959992,59.789679 19.964,60.2216812 C20.0360004,60.4616824 20.2159986,60.5816812 20.504,60.5816812 C20.7200011,60.5816812 20.8999993,60.497682 21.044,60.3296812 C21.7400035,59.4176766 22.3159977,58.6136847 22.772,57.9176812 C23.2280023,57.2216777 23.7199974,56.393686 24.248,55.4336812 C25.7120073,52.6976675 27.4519899,48.9417051 29.468,44.1656812 C30.2360038,41.9576701 30.7579986,40.5176845 31.034,39.8456812 C31.3100014,39.1736778 31.6279982,38.7416821 31.988,38.5496812 C32.1320007,38.4536807 32.2759993,38.4056812 32.42,38.4056812 C32.6840013,38.4056812 32.9239989,38.5016802 33.14,38.6936812 C33.2360005,38.7896817 33.3259996,38.9456801 33.41,39.1616812 C33.4940004,39.3776823 33.5240001,39.6176799 33.5,39.8816812 C33.2599988,40.7216854 32.7020044,42.2876697 31.826,44.5796812 C30.9499956,46.8716926 30.2720024,48.533676 29.792,49.5656812 C29.6959995,49.733682 29.5040014,50.0576788 29.216,50.5376812 C29.1679998,50.6096815 29.0660008,50.7836798 28.91,51.0596812 C28.7539992,51.3356826 28.676,51.5456805 28.676,51.6896812 C28.676,51.9296824 28.0460063,53.1836698 26.786,55.4516812 C25.5259937,57.7196925 24.596003,59.2376773 23.996,60.0056812 C23.203996,61.0136862 22.406004,61.7996784 21.602,62.3636812 C20.797996,62.927684 20.2400016,63.2096812 19.928,63.2096812 Z M38.216,60.0416812 C37.615997,60.5696838 36.8960042,60.8336812 36.056,60.8336812 C35.455997,60.8336812 34.8860027,60.6896826 34.346,60.4016812 C33.8059973,60.1136797 33.3560018,59.7176837 32.996,59.2136812 C32.6839984,58.8296793 32.4560007,58.3976836 32.312,57.9176812 C32.1679993,57.4376788 32.096,56.8496847 32.096,56.1536812 C32.096,55.91368 32.1199998,55.4336848 32.168,54.7136812 C32.2400004,53.8256767 32.5339974,52.901686 33.05,51.9416812 C33.5660026,50.9816764 34.2079962,50.123685 34.976,49.3676812 C35.7440038,48.6116774 36.4999963,48.0896826 37.244,47.8016812 C37.6280019,47.56168 37.9759984,47.4416812 38.288,47.4416812 C38.4560008,47.4416812 38.6239992,47.4536811 38.792,47.4776812 C38.9600008,47.5016813 39.139999,47.5256811 39.332,47.5496812 C39.8600026,47.6216815 40.2619986,47.7236805 40.538,47.8556812 C40.8140014,47.9876818 41.047999,48.1856799 41.24,48.4496812 C41.840003,49.0496842 42.14,49.7456772 42.14,50.5376812 C42.0439995,51.1136841 41.6720032,51.7736775 41.024,52.5176812 C40.3759968,53.2616849 39.596,53.8616789 38.684,54.3176812 C38.2519978,54.4616819 37.7600028,54.5336812 37.208,54.5336812 C36.4639963,54.5336812 35.8640023,54.3776827 35.408,54.0656812 C35.1919989,53.9936808 35.0240006,53.9576812 34.904,53.9576812 C34.6879989,53.9576812 34.5260005,54.1016797 34.418,54.3896812 C34.3099995,54.6776826 34.2080005,55.2056773 34.112,55.9736812 C34.0879999,56.141682 34.076,56.3816796 34.076,56.6936812 C34.076,57.9176873 34.4839959,58.5896806 35.3,58.7096812 C35.8520028,58.8296818 36.2479988,58.8896812 36.488,58.8896812 C36.7760014,58.8896812 37.0999982,58.7936821 37.46,58.6016812 L38.144,58.2056812 C38.2880007,58.1336808 38.4199994,58.0376818 38.54,57.9176812 L38.864,57.5936812 C38.9120002,57.5456809 38.9839995,57.4676817 39.08,57.3596812 C39.1760005,57.2516806 39.2659996,57.1796814 39.35,57.1436812 C39.4340004,57.107681 39.5119996,57.0896812 39.584,57.0896812 C39.6800005,57.0896812 39.7879994,57.1436806 39.908,57.2516812 C40.0280006,57.3596817 40.1239996,57.4376809 40.196,57.4856812 C40.4120011,57.4856812 40.4600006,57.6356797 40.34,57.9356812 C40.2199994,58.2356827 39.962002,58.5836792 39.566,58.9796812 C39.169998,59.3756832 38.7200025,59.7296796 38.216,60.0416812 Z M38.18,52.4096812 C38.588002,52.2416803 39.0019979,51.9416833 39.422,51.5096812 C39.8420021,51.077679 40.052,50.7176826 40.052,50.4296812 C40.052,50.1416797 39.9440011,49.9016821 39.728,49.7096812 C39.5119989,49.5176802 39.2120019,49.4216812 38.828,49.4216812 C38.5399986,49.4216812 38.3240007,49.4456809 38.18,49.4936812 C37.8439983,49.5896817 37.4480023,49.8476791 36.992,50.2676812 C36.5359977,50.6876833 36.1400017,51.113679 35.804,51.5456812 C35.4679983,51.9776833 35.3359996,52.2296808 35.408,52.3016812 C35.5280006,52.5176823 35.9959959,52.6256812 36.812,52.6256812 C37.3640028,52.6256812 37.8199982,52.5536819 38.18,52.4096812 Z M173.072,59.7896812 C172.735998,59.6696806 172.418002,59.3756835 172.118,58.9076812 C171.817999,58.4396788 171.668,57.6776865 171.668,56.6216812 L171.704,54.9656812 C171.704,54.6776797 171.686,54.4736818 171.65,54.3536812 C171.614,54.2336806 171.548,54.1736812 171.452,54.1736812 C171.139998,54.1736812 170.474005,54.5816771 169.454,55.3976812 C168.433995,56.2136853 167.408005,57.1856755 166.376,58.3136812 C166.255999,58.4336818 166.094001,58.60768 165.89,58.8356812 C165.685999,59.0636823 165.500001,59.2316806 165.332,59.3396812 C165.163999,59.4476817 165.008001,59.5016812 164.864,59.5016812 C164.647999,59.5016812 164.444001,59.417682 164.252,59.2496812 L163.856,58.9256812 C163.687999,58.7816805 163.604,58.6136821 163.604,58.4216812 L163.676,58.0976812 L164.504,55.7216812 C165.032003,54.4976751 165.344,53.7236828 165.44,53.3996812 C165.536,53.0756796 165.524001,52.9256811 165.404,52.9496812 C165.187999,52.9736813 164.888002,53.0876802 164.504,53.2916812 C164.119998,53.4956822 163.88,53.6936812 163.784,53.8856812 C163.736,53.8856812 163.580001,54.0116799 163.316,54.2636812 C163.051999,54.5156824 162.824001,54.7016806 162.632,54.8216812 C162.415999,55.1336827 161.888004,55.6976771 161.048,56.5136812 L160.184,57.3416812 C159.823998,57.6296826 159.320003,58.2176767 158.672,59.1056812 C158.335998,59.5376833 158.144,59.7536812 158.096,59.7536812 C157.351996,59.7536812 156.884001,59.3936848 156.692,58.6736812 C156.596,58.5056803 156.548,58.2776826 156.548,57.9896812 C156.548,57.6056793 156.691999,56.8136872 156.98,55.6136812 C157.196001,54.7976771 157.316,54.2936821 157.34,54.1016812 L157.52,53.3816812 C157.568,53.0696796 157.675999,52.6976833 157.844,52.2656812 C158.012001,51.833679 158.299998,51.1496859 158.708,50.2136812 C158.948001,49.5416778 159.068,49.0376829 159.068,48.7016812 C159.068,48.3896796 159.175999,48.1436821 159.392,47.9636812 C159.608001,47.7836803 159.847999,47.6936812 160.112,47.6936812 C160.448002,47.6936812 160.735999,47.8256799 160.976,48.0896812 C161.216001,48.3536825 161.336,48.701679 161.336,49.1336812 C161.336,49.5416832 161.240001,49.961679 161.048,50.3936812 L160.652,51.3656812 C160.459999,51.7496831 160.214002,52.3676769 159.914,53.2196812 C159.613999,54.0716854 159.464,54.5456807 159.464,54.6416812 C159.488,54.7136815 159.571999,54.6956817 159.716,54.5876812 C159.860001,54.4796806 160.027999,54.341682 160.22,54.1736812 C160.436001,53.9576801 160.687999,53.7416823 160.976,53.5256812 C161.696004,52.8536778 162.553995,52.2056843 163.55,51.5816812 C164.546005,50.9576781 165.307997,50.561682 165.836,50.3936812 C166.148002,50.3936812 166.381999,50.4356808 166.538,50.5196812 C166.694001,50.6036816 166.867999,50.7476802 167.06,50.9516812 C167.252001,51.1556822 167.396,51.3056807 167.492,51.4016812 C167.708001,51.6176823 167.816,51.9296791 167.816,52.3376812 C167.816,52.4576818 167.792,52.6136802 167.744,52.8056812 C167.648,53.1416829 167.522001,53.5496788 167.366,54.0296812 C167.209999,54.5096836 167.096,54.8576801 167.024,55.0736812 C167.192001,54.9296805 167.491998,54.677683 167.924,54.3176812 C168.356002,53.9576794 168.751998,53.6216827 169.112,53.3096812 C170.312006,52.3736765 171.259997,51.9056812 171.956,51.9056812 C172.460003,51.9056812 172.891998,52.1696785 173.252,52.6976812 C173.468001,52.9136823 173.6,53.13568 173.648,53.3636812 C173.696,53.5916823 173.72,53.8976793 173.72,54.2816812 L173.72,55.1816812 C173.744,55.349682 173.756,55.6376791 173.756,56.0456812 C173.78,56.2376821 173.81,56.6096784 173.846,57.1616812 C173.882,57.7136839 173.936,58.0256808 174.008,58.0976812 C174.128001,58.2416819 174.535997,58.3736806 175.232,58.4936812 C175.664002,58.5656815 175.88,58.7576796 175.88,59.0696812 C175.88,59.2856823 175.724002,59.5016801 175.412,59.7176812 C175.099998,59.9096821 174.716002,60.0056812 174.26,60.0056812 C173.827998,60.0056812 173.432002,59.9336819 173.072,59.7896812 Z M177.248,60.0056812 C177.176,59.8616805 177.062001,59.711682 176.906,59.5556812 C176.749999,59.3996804 176.672,59.2976814 176.672,59.2496812 C176.672,58.9856799 176.612001,58.7816819 176.492,58.6376812 C176.444,58.5896809 176.42,58.481682 176.42,58.3136812 C176.42,57.9296793 176.605998,57.2756858 176.978,56.3516812 C177.350002,55.4276766 177.835997,54.4256866 178.436,53.3456812 C178.580001,53.2016805 178.765999,52.949683 178.994,52.5896812 C179.222001,52.2296794 179.372,52.0256814 179.444,51.9776812 C179.444,51.8816807 179.48,51.7916816 179.552,51.7076812 C179.624,51.6236808 179.708,51.5816812 179.804,51.5816812 L179.804,51.3656812 C179.804,51.1496801 180.199996,50.6276853 180.992,49.7996812 C181.784004,48.971677 182.431997,48.4016827 182.936,48.0896812 C183.536003,47.6816791 184.147997,47.4776812 184.772,47.4776812 C185.204002,47.4776812 185.575998,47.59768 185.888,47.8376812 C186.008001,47.9816819 186.559995,48.4976767 187.544,49.3856812 L188.876,50.5736812 L188.228,52.3736812 C188.011999,53.0216844 187.904,53.6096785 187.904,54.1376812 C187.904,55.0496857 188.167997,55.925677 188.696,56.7656812 C188.816001,57.0296825 189.055998,57.28168 189.416,57.5216812 C189.776002,57.7616824 190.135998,57.9056809 190.496,57.9536812 C191.024003,58.0496817 191.288,58.313679 191.288,58.7456812 C191.288,59.2256836 191.072002,59.5136807 190.64,59.6096812 C190.544,59.6336813 190.400001,59.6456812 190.208,59.6456812 C188.791993,59.6456812 187.568005,58.6496911 186.536,56.6576812 C186.44,56.5136805 186.314001,56.2496831 186.158,55.8656812 C186.001999,55.4816793 185.912,55.2176819 185.888,55.0736812 C185.743999,55.2656821 185.564001,55.4936799 185.348,55.7576812 C185.131999,56.0216825 184.928001,56.2496802 184.736,56.4416812 C182.119987,59.0576943 180.056008,60.3656812 178.544,60.3656812 C178.063998,60.3656812 177.632002,60.2456824 177.248,60.0056812 Z M178.544,57.9896812 C178.544,58.1096818 178.669999,58.1456814 178.922,58.0976812 C179.174001,58.0496809 179.485998,57.9296821 179.858,57.7376812 C180.230002,57.5456802 180.607998,57.2936827 180.992,56.9816812 C183.05601,55.2056723 184.544,53.6576878 185.456,52.3376812 L186.248,51.0416812 C186.007999,50.5376787 185.756001,50.1716823 185.492,49.9436812 C185.227999,49.71568 184.988001,49.6016812 184.772,49.6016812 C184.267997,49.6016812 183.476005,50.2316749 182.396,51.4916812 C181.315995,52.7516875 180.332004,54.2336727 179.444,55.9376812 C179.227999,56.3456832 179.036001,56.7596791 178.868,57.1796812 C178.699999,57.5996833 178.592,57.8696806 178.544,57.9896812 Z M196.654403,52.4786808 C196.749403,52.3601794 196.832601,52.2711804 196.904,52.2116812 C196.976,52.1516809 197.036,52.0856815 197.084,52.0136812 C197.108,51.9176807 197.245999,51.7736821 197.498,51.5816812 C197.750001,51.3896802 197.924,51.2456817 198.02,51.1496812 C198.692003,50.7416791 199.561995,50.1236853 200.63,49.2956812 C201.698005,48.467677 202.327999,47.9576821 202.52,47.7656812 C202.664001,47.6216805 202.807999,47.5496812 202.952,47.5496812 C203.072001,47.5496812 203.203999,47.5856808 203.348,47.6576812 C203.636001,47.7296815 203.828,47.8436804 203.924,47.9996812 C204.02,48.155682 204.068,48.449679 204.068,48.8816812 C204.14,49.1456825 204.044001,49.4216797 203.78,49.7096812 C203.515999,49.9976826 203.096003,50.3336793 202.52,50.7176812 C201.895997,51.1256832 201.356002,51.5336791 200.9,51.9416812 C200.251997,52.3256831 199.724002,52.7096793 199.316,53.0936812 C199.171999,53.2136818 198.956001,53.3996799 198.668,53.6516812 C198.379999,53.9036824 198.128001,54.0896806 197.912,54.2096812 C198.104001,54.5456829 198.259999,54.7736806 198.38,54.8936812 L198.992,55.8296812 C199.808004,57.1016875 200.407998,57.9416791 200.792,58.3496812 C201.176002,58.7576832 201.763996,59.2016788 202.556,59.6816812 C202.772001,59.849682 202.868,60.0656799 202.844,60.3296812 C202.748,60.5936825 202.646001,60.7556809 202.538,60.8156812 C202.429999,60.8756815 202.112003,60.9656806 201.584,61.0856812 C201.223998,61.0616811 200.954001,61.0016817 200.774,60.9056812 C200.593999,60.8096807 200.216003,60.5456833 199.64,60.1136812 C199.255998,59.7536794 198.698004,59.1116858 197.966,58.1876812 C197.233996,57.2636766 196.568003,56.3816854 195.968,55.5416812 C195.847999,55.4936809 195.752,55.3736821 195.68,55.1816812 C195.247998,56.2136863 195.032,56.8376801 195.032,57.0536812 C194.887999,57.4616832 194.78,57.881679 194.708,58.3136812 C194.539999,59.0576849 194.360001,59.6096794 194.168,59.9696812 C194.12,60.4976838 193.940002,60.7616812 193.628,60.7616812 C193.459999,60.7616812 193.244001,60.677682 192.98,60.5096812 C192.739999,60.3656805 192.566001,60.2216819 192.458,60.0776812 C192.349999,59.9336805 192.296,59.7536823 192.296,59.5376812 C192.296,59.2016795 192.355999,58.8176833 192.476,58.3856812 C192.596001,57.953679 192.727999,57.5336832 192.872,57.1256812 C192.968,56.5496783 193.069999,56.075683 193.178,55.7036812 C193.286001,55.3316793 193.459999,54.965683 193.7,54.6056812 C193.892001,54.0296783 194.083999,53.5016836 194.276,53.0216812 C194.924003,51.1736719 195.343999,49.9016847 195.536,49.2056812 C195.824001,48.5816781 196.099999,47.9216847 196.364,47.2256812 C196.652001,46.6256782 197.071997,45.6536879 197.624,44.3096812 L198.056,43.0496812 C198.392002,41.9696758 198.739998,41.1656838 199.1,40.6376812 C199.172,40.5416807 199.387998,40.2056841 199.748,39.6296812 C199.772,39.5336807 199.867999,39.4856812 200.036,39.4856812 C200.204001,39.4856812 200.359999,39.5156809 200.504,39.5756812 C200.648001,39.6356815 200.756,39.7136807 200.828,39.8096812 C200.948001,39.7856811 201.085999,39.9416795 201.242,40.2776812 C201.398001,40.6136829 201.464,40.8776802 201.44,41.0696812 C201.44,41.3336825 201.344001,41.6216796 201.152,41.9336812 C201.08,42.0056815 200.984001,42.1496801 200.864,42.3656812 C200.743999,42.5816823 200.600001,42.80968 200.432,43.0496812 C200.36,43.2656823 200.270001,43.5656793 200.162,43.9496812 C200.053999,44.3336831 199.940001,44.6336801 199.82,44.8496812 C199.724,45.0656823 199.598001,45.3236797 199.442,45.6236812 C199.285999,45.9236827 199.184,46.1456805 199.136,46.2896812 C199.015999,46.6016827 198.812001,47.0696781 198.524,47.6936812 C198.115998,48.6056857 197.864,49.2176796 197.768,49.5296812 C197.72,49.697682 197.588001,50.099678 197.372,50.7356812 C197.156,51.3716821 196.916003,51.9536745 196.652003,52.4816756 L196.654403,52.4786808 Z M209.324,61.4096812 C208.291995,61.4096812 207.440003,61.025685 206.768,60.2576812 C206.095997,59.4896773 205.76,58.5296869 205.76,57.3776812 C205.76,56.2256812 206.017997,54.9596881 206.534,53.5796812 C207.050003,52.1996743 207.715996,50.9576867 208.532,49.8536812 C209.348004,48.7496757 210.175996,48.0056831 211.016,47.6216812 C211.496002,47.3576799 212.035997,47.2256812 212.636,47.2256812 C213.092002,47.2256812 213.607997,47.3576799 214.184,47.6216812 C214.592002,47.789682 214.903999,47.99368 215.12,48.2336812 C215.336001,48.4736824 215.527999,48.8456787 215.696,49.3496812 C215.768,49.7816833 215.804,50.0816803 215.804,50.2496812 C215.804,50.3936819 215.744001,50.7056788 215.624,51.1856812 C215.335999,52.0736856 214.958002,52.8236781 214.49,53.4356812 C214.021998,54.0476842 213.416004,54.569679 212.672,55.0016812 C212.287998,55.2416824 211.808003,55.3616812 211.232,55.3616812 C210.727997,55.3616812 210.254002,55.2716821 209.81,55.0916812 C209.365998,54.9116803 209.024001,54.641683 208.784,54.2816812 L208.532,53.9936812 L208.424,54.2816812 C207.919997,55.5776877 207.668,56.6816766 207.668,57.5936812 C207.668,58.2176843 207.787999,58.7216793 208.028,59.1056812 C208.196001,59.3696825 208.603997,59.5016812 209.252,59.5016812 C209.732002,59.5016812 210.079999,59.4536817 210.296,59.3576812 C210.656002,59.2376806 210.973999,59.0876821 211.25,58.9076812 C211.526001,58.7276803 211.795999,58.5416821 212.06,58.3496812 L212.204,58.2776812 L212.168,58.2776812 C212.456001,58.1336805 212.695999,58.0016818 212.888,57.8816812 C213.080001,57.7616806 213.212,57.6776814 213.284,57.6296812 C213.332,57.6296812 213.38,57.6176813 213.428,57.5936812 C213.476,57.5696811 213.524,57.5216815 213.572,57.4496812 C213.788001,57.3536807 214.039999,57.3896803 214.328,57.5576812 C214.616001,57.7256812 214.76,57.9416799 214.76,58.2056812 C214.712,58.3976821 214.496002,58.709679 214.112,59.1416812 C213.727998,59.5736833 213.440001,59.8016811 213.248,59.8256812 C213.224,59.8256812 213.140001,59.8616808 212.996,59.9336812 C212.851999,60.0056815 212.756,60.0656809 212.708,60.1136812 L212.744,60.1136812 C212.527999,60.4016826 212.312001,60.5456812 212.096,60.5456812 L211.808,60.5456812 C211.712,60.7376821 211.394003,60.9296802 210.854,61.1216812 C210.313997,61.3136821 209.804002,61.4096812 209.324,61.4096812 Z M210.944,53.4896812 C211.664004,53.4896812 212.323997,53.0816853 212.924,52.2656812 C213.500003,51.4976773 213.788,50.729685 213.788,49.9616812 C213.788,49.5536791 213.704001,49.265682 213.536,49.0976812 C213.391999,49.0256808 213.260001,48.9896812 213.14,48.9896812 C213.019999,48.9896812 212.816001,49.0256808 212.528,49.0976812 C212.215998,49.1696815 211.736003,49.4996782 211.088,50.0876812 C210.439997,50.6756841 209.960002,51.1976789 209.648,51.6536812 L209.18,52.4096812 C209.372001,52.3376808 209.557999,52.2956812 209.738,52.2836812 C209.918001,52.2716811 210.02,52.2896809 210.044,52.3376812 C210.044,52.6736829 210.127999,52.9496801 210.296,53.1656812 C210.464001,53.3816823 210.68,53.4896812 210.944,53.4896812 Z M228.8,69.5816812 C228.776,69.6296814 228.668001,69.5816819 228.476,69.4376812 C228.283999,69.2936805 228.110001,69.1136823 227.954,68.8976812 C227.797999,68.6816801 227.732,68.5136818 227.756,68.3936812 C227.708,68.2016802 227.684,68.0336819 227.684,67.8896812 C227.684,67.3136783 228.019997,66.341688 228.692,64.9736812 C228.836001,64.7096799 229.075998,64.2056849 229.412,63.4616812 C229.628001,62.9096784 229.843999,62.4296832 230.06,62.0216812 C230.108,61.9256807 230.527996,61.1816881 231.32,59.7896812 C232.112004,58.3976742 232.783997,56.9936883 233.336,55.5776812 C232.927998,56.0096833 232.424003,56.5736777 231.824,57.2696812 C231.127997,58.1336855 230.558002,58.7636792 230.114,59.1596812 C229.669998,59.5556832 229.268002,59.7416813 228.908,59.7176812 C228.475998,59.6216807 228.116001,59.489682 227.828,59.3216812 C227.539999,59.1536803 227.336001,58.889683 227.216,58.5296812 C227.144,58.1216791 227.108,57.6776836 227.108,57.1976812 C227.108,56.1176758 227.263998,54.6536904 227.576,52.8056812 C227.816001,51.773676 227.936,51.0176836 227.936,50.5376812 C227.936,50.2496797 227.9,50.021682 227.828,49.8536812 C227.756,49.6856803 227.636001,49.517682 227.468,49.3496812 C227.131998,49.0616797 226.964,48.7976824 226.964,48.5576812 C226.964,48.3656802 227.131998,48.1736821 227.468,47.9816812 C227.780002,47.8856807 228.067999,47.8376812 228.332,47.8376812 C228.524001,47.8376812 228.691999,47.8796808 228.836,47.9636812 C228.980001,48.0476816 229.147999,48.20968 229.34,48.4496812 C229.412,48.5696818 229.519999,48.74368 229.664,48.9716812 C229.808001,49.1996823 229.916,49.4516798 229.988,49.7276812 C230.06,50.0036826 230.096,50.3456791 230.096,50.7536812 C230.072,50.9456821 229.976001,51.7016746 229.808,53.0216812 C229.687999,53.5736839 229.628,53.9456802 229.628,54.1376812 C229.315998,55.2896869 229.16,56.2376775 229.16,56.9816812 C229.16,57.2696826 229.196,57.4136812 229.268,57.4136812 C229.916003,56.8856785 230.557997,56.237685 231.194,55.4696812 C231.830003,54.7016773 232.663995,53.6216881 233.696,52.2296812 C233.792,52.0616803 233.977999,51.7316836 234.254,51.2396812 C234.530001,50.7476787 234.739999,50.2856833 234.884,49.8536812 C235.196002,49.1576777 235.459999,48.7976813 235.676,48.7736812 C235.820001,48.7256809 236.047998,48.7736805 236.36,48.9176812 C236.672002,49.0616819 236.84,49.1696808 236.864,49.2416812 C236.864,49.2656813 236.971999,49.295681 237.188,49.3316812 C237.404001,49.3676814 237.512,49.4216808 237.512,49.4936812 C237.512,49.5416814 237.380001,49.9016778 237.116,50.5736812 C236.707998,51.5576861 236.516,52.0856808 236.54,52.1576812 C236.612,52.2536817 236.486002,52.6616776 236.162,53.3816812 C235.837998,54.1016848 235.652,54.5216806 235.604,54.6416812 C235.003997,56.5616908 234.356003,58.1216752 233.66,59.3216812 C233.419999,59.7536833 232.844005,61.0136707 231.932,63.1016812 L231.644,63.7856812 C231.403999,64.3136838 231.140001,64.9196778 230.852,65.6036812 C230.563999,66.2876846 230.312001,66.8936785 230.096,67.4216812 C229.951999,67.7096826 229.85,67.9436803 229.79,68.1236812 C229.73,68.3036821 229.676,68.4416807 229.628,68.5376812 C229.58,68.9936835 229.472001,69.3296801 229.304,69.5456812 L228.8,69.5816812 Z M242.192,61.0856812 C241.903999,61.1096813 241.670001,61.0916815 241.49,61.0316812 C241.309999,60.9716809 241.052002,60.8336823 240.716,60.6176812 C239.683995,59.777677 239.18,58.9496853 239.204,58.1336812 C239.228,58.0616808 239.24,57.9536819 239.24,57.8096812 C239.24,57.6656805 239.228,57.5516816 239.204,57.4676812 C239.18,57.3836808 239.168,57.3296813 239.168,57.3056812 C239.072,57.2336808 239.018,57.1796814 239.006,57.1436812 C238.994,57.107681 239.006,57.0656814 239.042,57.0176812 C239.078,56.9696809 239.108,56.9216814 239.132,56.8736812 C239.228,56.8496811 239.276,56.8016815 239.276,56.7296812 C239.276,56.6576808 239.252,56.5736817 239.204,56.4776812 C239.132,56.2856802 239.173999,55.8476846 239.33,55.1636812 C239.486001,54.4796778 239.695999,53.8376842 239.96,53.2376812 C240.152001,52.7816789 240.457998,52.1936848 240.878,51.4736812 C241.298002,50.7536776 241.687998,50.2016831 242.048,49.8176812 C242.552003,49.2416783 243.013998,48.7976827 243.434,48.4856812 C243.854002,48.1736796 244.339997,47.9216821 244.892,47.7296812 C245.396003,47.5136801 245.743999,47.4056812 245.936,47.4056812 C246.176001,47.4056812 246.475998,47.5496797 246.836,47.8376812 C247.412003,48.005682 247.849999,48.2396797 248.15,48.5396812 C248.450002,48.8396827 248.683999,49.3016781 248.852,49.9256812 C248.996001,50.4296837 249.068,50.9936781 249.068,51.6176812 C249.068,52.9616879 248.648004,54.4376731 247.808,56.0456812 C247.375998,56.9096855 246.956002,57.5756788 246.548,58.0436812 C246.139998,58.5116835 245.576004,59.0576781 244.856,59.6816812 C244.351997,60.0896832 243.914002,60.4016801 243.542,60.6176812 C243.169998,60.8336823 242.720003,60.9896807 242.192,61.0856812 Z M245.072,56.8016812 C245.576003,56.0576775 245.959999,55.3796842 246.224,54.7676812 C246.488001,54.1556781 246.703999,53.3936857 246.872,52.4816812 C246.896,52.3856807 246.908,52.1936826 246.908,51.9056812 C246.908,51.4256788 246.86,50.9696833 246.764,50.5376812 C246.668,50.105679 246.548001,49.8776813 246.404,49.8536812 C246.211999,49.7816808 246.032001,49.7456812 245.864,49.7456812 C245.311997,49.7456812 244.724003,50.0696779 244.1,50.7176812 C243.523997,51.3896845 243.026002,52.1996764 242.606,53.1476812 C242.185998,54.0956859 241.772002,55.2536743 241.364,56.6216812 C241.243999,57.1016836 241.184,57.4856797 241.184,57.7736812 C241.184,58.2056833 241.267999,58.5476799 241.436,58.7996812 C241.604001,59.0516824 241.843998,59.1776812 242.156,59.1776812 C242.540002,59.1776812 242.983997,58.9796832 243.488,58.5836812 C243.992003,58.1876792 244.519997,57.5936851 245.072,56.8016812 Z M259.868,61.2296812 C259.291997,60.6776784 258.860001,59.8616866 258.572,58.7816812 C258.524,58.6376805 258.5,58.385683 258.5,58.0256812 L258.5,57.2696812 C258.355999,57.629683 258.092002,57.9536797 257.708,58.2416812 C257.155997,58.7936839 256.604003,59.2016799 256.052,59.4656812 C255.211996,60.0176839 254.528003,60.2936812 254,60.2936812 C253.519998,60.2936812 253.064002,60.0296838 252.632,59.5016812 C252.319998,59.2376799 252.086001,58.9736825 251.93,58.7096812 C251.773999,58.4456799 251.696,58.1216831 251.696,57.7376812 C251.696,57.4736799 251.732,57.1856827 251.804,56.8736812 C251.852,55.9856767 251.977999,55.1336853 252.182,54.3176812 C252.386001,53.5016771 252.775997,52.4576875 253.352,51.1856812 C254.120004,49.6736736 254.671998,48.6656837 255.008,48.1616812 C255.128001,48.1136809 255.283999,48.0896812 255.476,48.0896812 C255.716001,48.0896812 255.913999,48.1616805 256.07,48.3056812 C256.226001,48.4496819 256.316,48.64168 256.34,48.8816812 C256.412,48.9776817 256.448,49.1096803 256.448,49.2776812 C256.448,49.8776842 256.088004,50.8616743 255.368,52.2296812 C254.431995,54.4856925 253.964,56.0456769 253.964,56.9096812 C253.964,57.4136837 254.107999,57.7136807 254.396,57.8096812 C254.516001,57.8816815 254.647999,57.9176812 254.792,57.9176812 C255.392003,57.9176812 256.111996,57.5096853 256.952,56.6936812 C257.792004,55.8776771 258.595996,54.5696902 259.364,52.7696812 C259.700002,51.9536771 259.904,51.1136855 259.976,50.2496812 C259.952,50.1776808 259.94,50.0696819 259.94,49.9256812 C259.94,49.493679 260.155998,49.1456825 260.588,48.8816812 C260.684,48.7376805 260.815999,48.6236816 260.984,48.5396812 C261.152001,48.4556808 261.26,48.4616807 261.308,48.5576812 L261.884,48.5216812 C261.956,48.4976811 262.028,48.5636804 262.1,48.7196812 C262.172,48.875682 262.244,48.9776809 262.316,49.0256812 C262.484001,49.1696819 262.568,49.4336793 262.568,49.8176812 C262.568,50.6096851 262.220003,51.821673 261.524,53.4536812 C261.067998,54.413686 260.762001,55.1516786 260.606,55.6676812 C260.449999,56.1836838 260.36,56.6816788 260.336,57.1616812 C260.336,58.0736857 260.683997,58.8296782 261.38,59.4296812 C261.620001,59.597682 261.764,59.7776802 261.812,59.9696812 C261.86,60.1616821 261.872,60.4256795 261.848,60.7616812 C261.8,60.9776823 261.662001,61.1516805 261.434,61.2836812 C261.205999,61.4156818 260.960001,61.4816812 260.696,61.4816812 C260.383998,61.4816812 260.108001,61.397682 259.868,61.2296812 Z M274.376,59.3576812 C274.015998,59.3576812 273.740001,59.273682 273.548,59.1056812 C273.355999,58.9376803 273.23,58.8056817 273.17,58.7096812 C273.11,58.6136807 273.08,58.4936819 273.08,58.3496812 C273.08,58.2536807 273.163999,57.8096851 273.332,57.0176812 L273.656,55.8296812 C273.896001,54.8456763 274.111999,54.0296844 274.304,53.3816812 C274.4,52.7816782 274.585999,52.1456845 274.862,51.4736812 C275.138001,50.8016778 275.3,50.3936819 275.348,50.2496812 C275.540001,49.5536777 275.911997,48.4736885 276.464,47.0096812 L277.544,44.0936812 C278.384004,41.8136698 278.887999,40.4216837 279.056,39.9176812 L279.632,38.3336812 C279.632,37.9496793 279.823998,37.7576812 280.208,37.7576812 C280.544002,37.7576812 280.825999,37.9436793 281.054,38.3156812 C281.282001,38.687683 281.396,39.1136788 281.396,39.5936812 C281.396,39.953683 281.324001,40.3016795 281.18,40.6376812 C280.843998,41.3576848 280.478002,42.2636757 280.082,43.3556812 C279.685998,44.4476866 279.428001,45.1616795 279.308,45.4976812 C278.491996,47.8016927 277.904002,49.3376773 277.544,50.1056812 C277.544,50.2016817 277.508,50.36968 277.436,50.6096812 C277.364,50.8496824 277.28,51.0656802 277.184,51.2576812 L276.788,52.0496812 C276.788,52.1216815 276.656001,52.6256765 276.392,53.5616812 C276.055998,54.5936863 275.852,55.3496788 275.78,55.8296812 C275.900001,55.6136801 276.151998,55.2836834 276.536,54.8396812 C276.920002,54.395679 277.279998,54.0296826 277.616,53.7416812 C278.936007,52.6136755 279.751998,51.9416823 280.064,51.7256812 C280.352001,51.5576803 280.591999,51.4016819 280.784,51.2576812 C280.976001,51.1136805 281.108,51.0176814 281.18,50.9696812 C281.18,50.8496806 281.311999,50.7896812 281.576,50.7896812 C281.672,50.7896812 281.726,50.7776813 281.738,50.7536812 C281.75,50.7296811 281.756,50.6696817 281.756,50.5736812 C281.756,50.4056803 282.031997,50.2556818 282.584,50.1236812 C283.136003,49.9916805 283.627998,49.9256812 284.06,49.9256812 C284.348001,49.9256812 284.575999,49.9856806 284.744,50.1056812 C284.912001,50.2256818 285.127999,50.4896791 285.392,50.8976812 C285.800002,51.4736841 286.004,52.0976778 286.004,52.7696812 C286.004,53.1536831 285.932001,53.5496791 285.788,53.9576812 C285.788,54.1496821 285.758,54.4436792 285.698,54.8396812 C285.638,55.2356832 285.608,55.5776797 285.608,55.8656812 L285.392,57.0176812 L285.968,57.0176812 C286.136001,57.0176812 286.297999,57.0416809 286.454,57.0896812 C286.610001,57.1376814 286.712,57.1736811 286.76,57.1976812 C286.976001,57.4616825 287.167999,57.5936812 287.336,57.5936812 C287.552001,57.5936812 287.66,57.6776803 287.66,57.8456812 C287.66,57.9416817 287.612,58.0616805 287.516,58.2056812 C287.42,58.3496819 287.288001,58.4696807 287.12,58.5656812 C286.495997,58.9496831 285.968002,59.1416812 285.536,59.1416812 C285.127998,59.1416812 284.708002,58.9496831 284.276,58.5656812 C283.747997,58.0376785 283.484,57.4016849 283.484,56.6576812 C283.484,56.2736793 283.555999,55.8176838 283.7,55.2896812 L283.808,54.1376812 C283.856,53.5616783 283.88,53.2016819 283.88,53.0576812 C283.88,52.5056784 283.748001,52.2296812 283.484,52.2296812 C283.147998,52.2296812 282.506005,52.5236782 281.558,53.1116812 C280.609995,53.6996841 279.632005,54.4316768 278.624,55.3076812 C277.615995,56.1836856 276.812003,57.0656767 276.212,57.9536812 C275.851998,58.4096835 275.546001,58.75168 275.294,58.9796812 C275.041999,59.2076823 274.808001,59.3336811 274.592,59.3576812 L274.376,59.3576812 Z M293.06,60.2576812 C292.819999,60.3056814 292.604001,60.3296812 292.412,60.3296812 C292.099998,60.3296812 291.812001,60.2996815 291.548,60.2396812 C291.283999,60.1796809 291.152,60.1016817 291.152,60.0056812 C291.152,59.9336808 291.14,59.8856813 291.116,59.8616812 C291.092,59.8376811 291.044,59.8256812 290.972,59.8256812 C290.948,59.8016811 290.876001,59.7416817 290.756,59.6456812 C290.635999,59.5496812 290.492001,59.4656815 290.324,59.3936812 C290.107999,59.0576795 290,58.6976831 290,58.3136812 C290,57.9056791 290.107999,57.2696855 290.324,56.4056812 C290.396,55.6376773 290.755997,54.6776869 291.404,53.5256812 C292.052003,52.3736754 292.813996,51.2816863 293.69,50.2496812 C294.566004,49.217676 295.351997,48.4976832 296.048,48.0896812 C296.408002,47.7296794 296.863997,47.5496812 297.416,47.5496812 C297.848002,47.5496812 298.255998,47.6576801 298.64,47.8736812 C298.976002,48.0656821 299.329998,48.3896789 299.702,48.8456812 C300.074002,49.3016835 300.367999,49.7696788 300.584,50.2496812 C300.68,50.609683 300.728,50.9576795 300.728,51.2936812 C300.728,51.653683 300.68,52.2176773 300.584,52.9856812 C300.463999,53.4176833 300.362,53.9456781 300.278,54.5696812 C300.194,55.1936843 300.152,55.7336789 300.152,56.1896812 C300.104,56.5256829 300.128,56.7956802 300.224,56.9996812 C300.32,57.2036822 300.451999,57.3056812 300.62,57.3056812 C300.740001,57.3056812 300.871999,57.2696815 301.016,57.1976812 C301.256001,57.0776806 301.519999,57.0176812 301.808,57.0176812 C302.072001,57.0176812 302.287999,57.0896805 302.456,57.2336812 C302.624001,57.3776819 302.708,57.5936797 302.708,57.8816812 C302.708,58.3136833 302.414003,58.745679 301.826,59.1776812 C301.237997,59.6096833 300.680003,59.8256812 300.152,59.8256812 C299.791998,59.8256812 299.462002,59.543684 299.162,58.9796812 C298.861999,58.4156784 298.568001,57.6896856 298.28,56.8016812 L298.064,55.9736812 L296.516,57.4496812 L295.688,58.2776812 C295.303998,58.6616831 295.088,58.8896808 295.04,58.9616812 C294.775999,59.4176835 294.116005,59.8496791 293.06,60.2576812 Z M293.168,58.1336812 C293.744003,57.7976795 294.451996,57.2096812 295.292,56.3696812 C296.132004,55.529677 296.827997,54.725685 297.38,53.9576812 C298.124004,52.9736763 298.591999,52.001686 298.784,51.0416812 C298.688,50.7536797 298.532001,50.4656826 298.316,50.1776812 C298.099999,49.8896797 297.908001,49.7336813 297.74,49.7096812 C297.259998,49.7096812 296.756003,49.9856784 296.228,50.5376812 C295.699997,51.0896839 295.076004,51.8576763 294.356,52.8416812 L293.168,54.6056812 C293.023999,54.7976821 292.772002,55.307677 292.412,56.1356812 C292.051998,56.9636853 291.872,57.4616803 291.872,57.6296812 C291.872,58.1576838 292.027998,58.4216812 292.34,58.4216812 C292.580001,58.4216812 292.855998,58.3256821 293.168,58.1336812 Z M304.58,67.6016812 C304.435999,67.6736815 304.304001,67.7096812 304.184,67.7096812 C303.847998,67.7096812 303.560001,67.5356829 303.32,67.1876812 C303.079999,66.8396794 302.96,66.4256836 302.96,65.9456812 C302.96,65.7296801 302.996,65.4896825 303.068,65.2256812 C303.092,65.1296807 303.157999,64.9076829 303.266,64.5596812 C303.374001,64.2116794 303.44,63.9176824 303.464,63.6776812 C303.512,63.4136799 303.655999,62.9336847 303.896,62.2376812 C304.136001,61.5416777 304.327999,61.0736824 304.472,60.8336812 C304.592001,60.6176801 304.688,60.3596827 304.76,60.0596812 C304.832,59.7596797 304.868,59.5016823 304.868,59.2856812 C305.036001,58.7576785 305.191999,58.3976821 305.336,58.2056812 C305.504001,57.6776785 305.683999,57.2696826 305.876,56.9816812 C305.9,56.9096808 305.93,56.7356826 305.966,56.4596812 C306.002,56.1836798 306.079999,56.0216814 306.2,55.9736812 C306.272,55.6376795 306.332,55.4096818 306.38,55.2896812 C306.548001,54.5456775 306.859998,53.6096868 307.316,52.4816812 C307.556001,51.8576781 307.676,51.2336843 307.676,50.6096812 C307.676,49.8656775 307.496002,49.4336818 307.136,49.3136812 C306.871999,49.2176807 306.74,49.0256826 306.74,48.7376812 C306.74,48.5696803 306.788,48.4136819 306.884,48.2696812 C306.98,48.1256805 307.111999,48.0176815 307.28,47.9456812 C307.472001,47.8736808 307.663999,47.8376812 307.856,47.8376812 C308.120001,47.8376812 308.365999,47.8736808 308.594,47.9456812 C308.822001,48.0176815 308.924,48.0776809 308.9,48.1256812 C308.9,48.1976815 308.912,48.251681 308.936,48.2876812 C308.96,48.3236814 309.008,48.3416812 309.08,48.3416812 C309.152,48.2456807 309.331999,48.4436787 309.62,48.9356812 C309.908001,49.4276836 310.052,49.7696802 310.052,49.9616812 C310.004,50.0336815 309.986,50.0816811 309.998,50.1056812 C310.01,50.1296813 310.052,50.1416812 310.124,50.1416812 C310.292001,50.0696808 310.609998,49.9076824 311.078,49.6556812 C311.546002,49.4036799 311.839999,49.2056819 311.96,49.0616812 L312.212,48.9356812 C312.332001,48.8756809 312.428,48.8096815 312.5,48.7376812 C312.764001,48.6416807 313.063998,48.5936812 313.4,48.5936812 C313.784002,48.5936812 314.155998,48.6536806 314.516,48.7736812 C314.876002,48.8936818 315.175999,49.0616801 315.416,49.2776812 C315.920003,49.9256844 316.172,50.5376783 316.172,51.1136812 C316.172,51.6176837 316.004002,52.2776771 315.668,53.0936812 C315.62,53.2376819 315.470001,53.5196791 315.218,53.9396812 C314.965999,54.3596833 314.792,54.6416805 314.696,54.7856812 C314.191997,55.5776851 313.592003,56.2616783 312.896,56.8376812 C312.199997,57.4136841 311.396005,57.9536787 310.484,58.4576812 C310.219999,58.625682 309.950001,58.7576807 309.674,58.8536812 C309.397999,58.9496817 309.164001,58.9976812 308.972,58.9976812 C308.876,58.9976812 308.78,58.9736814 308.684,58.9256812 C308.419999,58.7336802 308.180001,58.3256843 307.964,57.7016812 C307.651998,58.4456849 307.472,58.9496799 307.424,59.2136812 C307.424,59.2856815 307.406,59.3996804 307.37,59.5556812 C307.334,59.711682 307.268,59.8256808 307.172,59.8976812 C307.172,59.9216813 307.154,59.9816807 307.118,60.0776812 C307.082,60.1736817 307.004001,60.3056803 306.884,60.4736812 C306.523998,61.4816862 306.296,62.10568 306.2,62.3456812 C305.791998,63.4976869 305.552,64.2536794 305.48,64.6136812 C305.432,65.2136842 305.300001,65.8436779 305.084,66.5036812 C304.867999,67.1636845 304.700001,67.5296808 304.58,67.6016812 Z M308.864,57.3416812 C309.080001,57.2216806 309.667995,56.7956848 310.628,56.0636812 C311.588005,55.3316775 312.187999,54.8216826 312.428,54.5336812 C312.884002,53.9816784 313.195999,53.4656836 313.364,52.9856812 C313.604001,52.3856782 313.772,51.9416826 313.868,51.6536812 C313.94,51.5096805 313.976,51.3416821 313.976,51.1496812 C313.976,50.8856799 313.904001,50.6816819 313.76,50.5376812 C313.615999,50.5136811 313.298002,50.5916803 312.806,50.7716812 C312.313998,50.9516821 311.786003,51.2156794 311.222,51.5636812 C310.657997,51.9116829 310.184002,52.3376787 309.8,52.8416812 C309.367998,53.4176841 309.026001,54.0416778 308.774,54.7136812 C308.521999,55.3856845 308.396,55.9616788 308.396,56.4416812 C308.396,57.0416842 308.551998,57.3416812 308.864,57.3416812 Z M316.46,69.3296812 C316.195999,69.2336807 315.932001,69.0236828 315.668,68.6996812 C315.403999,68.3756796 315.272,68.1056823 315.272,67.8896812 C315.272,67.5296794 315.511998,66.3476912 315.992,64.3436812 C316.472002,62.3396712 316.939998,60.7136874 317.396,59.4656812 C317.42,59.3696807 317.575999,58.9736847 317.864,58.2776812 C318.152001,57.5816777 318.427999,56.7416861 318.692,55.7576812 C318.884001,55.0616777 319.387996,53.7056913 320.204,51.6896812 L321.248,49.0976812 L322.076,46.8296812 C322.148,46.6376802 322.273999,46.463682 322.454,46.3076812 C322.634001,46.1516804 322.795999,46.0496814 322.94,46.0016812 C322.988,45.9776811 323.071999,45.9656812 323.192,45.9656812 C323.528002,45.9656812 323.815999,46.1576793 324.056,46.5416812 C324.128,46.6856819 324.164,46.8296805 324.164,46.9736812 C324.164,47.2136824 324.020001,47.6816777 323.732,48.3776812 L323.48,49.0976812 L324.776,48.8096812 C325.112002,48.8096812 325.387999,48.8216811 325.604,48.8456812 C326.468004,48.8456812 327.007999,48.8696809 327.224,48.9176812 C327.752003,48.9416813 328.129999,49.0376803 328.358,49.2056812 C328.586001,49.373682 328.807999,49.6376794 329.024,49.9976812 C329.456002,50.4056832 329.696,50.7656796 329.744,51.0776812 C329.792,51.3656826 329.816,51.5936803 329.816,51.7616812 C329.816,52.529685 329.588002,53.3156772 329.132,54.1196812 C328.675998,54.9236852 328.136003,55.5296791 327.512,55.9376812 C327.272,56.0336817 327.068001,56.1296807 326.9,56.2256812 C326.731999,56.3216817 326.624,56.3816811 326.576,56.4056812 C326.528,56.5976821 325.982005,56.9036791 324.938,57.3236812 C323.893995,57.7436833 323.036003,58.0016807 322.364,58.0976812 C322.123999,58.1456814 321.848002,58.1696812 321.536,58.1696812 C321.272,58.1696812 321.068001,58.1336815 320.924,58.0616812 C320.635999,58.0136809 320.45,57.9896812 320.366,57.9896812 C320.282,57.9896812 320.24,58.0376807 320.24,58.1336812 C319.639997,59.9096901 319.148002,61.5296739 318.764,62.9936812 C317.923996,65.5376939 317.360001,67.1996773 317.072,67.9796812 C316.783999,68.7596851 316.580001,69.2096806 316.46,69.3296812 Z M320.96,56.0456812 C320.984,56.1416817 321.115999,56.1896812 321.356,56.1896812 C321.860003,56.1896812 322.633995,55.9556835 323.678,55.4876812 C324.722005,55.0196788 325.543997,54.5336837 326.144,54.0296812 C326.648003,53.4296782 327.037999,52.9316832 327.314,52.5356812 C327.590001,52.1396792 327.728,51.8336823 327.728,51.6176812 C327.728,51.5216807 327.68,51.4256817 327.584,51.3296812 C327.343999,50.9696794 326.912003,50.7896812 326.288,50.7896812 C325.495996,50.7896812 324.548006,51.0896782 323.444,51.6896812 C322.963998,51.857682 322.622001,52.0796798 322.418,52.3556812 C322.213999,52.6316826 322.028001,52.9736791 321.86,53.3816812 C321.691999,53.7896812 321.56,54.1016801 321.464,54.3176812 C321.079998,55.2296857 320.912,55.80568 320.96,56.0456812 Z M337.628,45.8936812 C337.171998,45.8936812 336.710002,45.6476836 336.242,45.1556812 C335.773998,44.6636787 335.54,44.1536838 335.54,43.6256812 C335.54,43.5056806 335.683999,43.2296833 335.972,42.7976812 C336.260001,42.365679 336.404,42.1256814 336.404,42.0776812 C336.572001,42.0776812 336.715999,42.0896811 336.836,42.1136812 C336.956001,42.1376813 337.099999,42.1856808 337.268,42.2576812 C337.484001,42.7376836 337.819998,43.2296787 338.276,43.7336812 C338.420001,43.9256821 338.551999,44.1056803 338.672,44.2736812 C338.792001,44.441682 338.852,44.5856806 338.852,44.7056812 C338.852,45.1136832 338.834,45.3896805 338.798,45.5336812 C338.762,45.6776819 338.666001,45.7736809 338.51,45.8216812 C338.353999,45.8696814 338.060002,45.8936812 337.628,45.8936812 Z M332.336,59.5376812 C332.264,59.5376812 332.168001,59.5136814 332.048,59.4656812 C331.927999,59.4176809 331.844,59.3816813 331.796,59.3576812 C331.796,59.2856808 331.766,59.1596821 331.706,58.9796812 C331.646,58.7996803 331.616,58.6856814 331.616,58.6376812 C331.423999,58.5416807 331.328,58.4216819 331.328,58.2776812 C331.328,58.1576806 331.364,57.9896823 331.436,57.7736812 C331.748002,57.2216784 332.299996,55.967691 333.092,54.0116812 C333.884004,52.0556714 334.328,50.897683 334.424,50.5376812 C334.424,50.4416807 334.46,50.3216819 334.532,50.1776812 C334.604,50.0336805 334.688,49.9136817 334.784,49.8176812 C334.88,49.7216807 334.987999,49.6736812 335.108,49.6736812 C335.372001,49.6736812 335.617999,49.8536794 335.846,50.2136812 C336.074001,50.573683 336.188,50.969679 336.188,51.4016812 C336.188,51.6896826 335.918003,52.5116744 335.378,53.8676812 C334.837997,55.223688 334.232003,56.5856743 333.56,57.9536812 L333.146,58.7816812 C332.965999,59.141683 332.828,59.3576808 332.732,59.4296812 C332.636,59.5016815 332.504001,59.5376812 332.336,59.5376812 Z M344.72,60.0416812 C344.119997,60.5696838 343.400004,60.8336812 342.56,60.8336812 C341.959997,60.8336812 341.390003,60.6896826 340.85,60.4016812 C340.309997,60.1136797 339.860002,59.7176837 339.5,59.2136812 C339.187998,58.8296793 338.960001,58.3976836 338.816,57.9176812 C338.671999,57.4376788 338.6,56.8496847 338.6,56.1536812 C338.6,55.91368 338.624,55.4336848 338.672,54.7136812 C338.744,53.8256767 339.037997,52.901686 339.554,51.9416812 C340.070003,50.9816764 340.711996,50.123685 341.48,49.3676812 C342.248004,48.6116774 343.003996,48.0896826 343.748,47.8016812 C344.132002,47.56168 344.479998,47.4416812 344.792,47.4416812 C344.960001,47.4416812 345.127999,47.4536811 345.296,47.4776812 C345.464001,47.5016813 345.643999,47.5256811 345.836,47.5496812 C346.364003,47.6216815 346.765999,47.7236805 347.042,47.8556812 C347.318001,47.9876818 347.551999,48.1856799 347.744,48.4496812 C348.344003,49.0496842 348.644,49.7456772 348.644,50.5376812 C348.548,51.1136841 348.176003,51.7736775 347.528,52.5176812 C346.879997,53.2616849 346.1,53.8616789 345.188,54.3176812 C344.755998,54.4616819 344.264003,54.5336812 343.712,54.5336812 C342.967996,54.5336812 342.368002,54.3776827 341.912,54.0656812 C341.695999,53.9936808 341.528001,53.9576812 341.408,53.9576812 C341.191999,53.9576812 341.030001,54.1016797 340.922,54.3896812 C340.813999,54.6776826 340.712,55.2056773 340.616,55.9736812 C340.592,56.141682 340.58,56.3816796 340.58,56.6936812 C340.58,57.9176873 340.987996,58.5896806 341.804,58.7096812 C342.356003,58.8296818 342.751999,58.8896812 342.992,58.8896812 C343.280001,58.8896812 343.603998,58.7936821 343.964,58.6016812 L344.648,58.2056812 C344.792001,58.1336808 344.923999,58.0376818 345.044,57.9176812 L345.368,57.5936812 C345.416,57.5456809 345.488,57.4676817 345.584,57.3596812 C345.68,57.2516806 345.77,57.1796814 345.854,57.1436812 C345.938,57.107681 346.016,57.0896812 346.088,57.0896812 C346.184,57.0896812 346.291999,57.1436806 346.412,57.2516812 C346.532001,57.3596817 346.628,57.4376809 346.7,57.4856812 C346.916001,57.4856812 346.964001,57.6356797 346.844,57.9356812 C346.723999,58.2356827 346.466002,58.5836792 346.07,58.9796812 C345.673998,59.3756832 345.224003,59.7296796 344.72,60.0416812 Z M344.684,52.4096812 C345.092002,52.2416803 345.505998,51.9416833 345.926,51.5096812 C346.346002,51.077679 346.556,50.7176826 346.556,50.4296812 C346.556,50.1416797 346.448001,49.9016821 346.232,49.7096812 C346.015999,49.5176802 345.716002,49.4216812 345.332,49.4216812 C345.043999,49.4216812 344.828001,49.4456809 344.684,49.4936812 C344.347998,49.5896817 343.952002,49.8476791 343.496,50.2676812 C343.039998,50.6876833 342.644002,51.113679 342.308,51.5456812 C341.971998,51.9776833 341.84,52.2296808 341.912,52.3016812 C342.032001,52.5176823 342.499996,52.6256812 343.316,52.6256812 C343.868003,52.6256812 344.323998,52.5536819 344.684,52.4096812 Z M350.768,60.0416812 C350.575999,59.8976805 350.444,59.7656818 350.372,59.6456812 C350.3,59.5256806 350.264,59.3456824 350.264,59.1056812 C350.264,58.8896801 350.276,58.7096819 350.3,58.5656812 C350.372,57.7496771 350.551999,56.8016866 350.84,55.7216812 L351.02,55.0016812 C351.092,54.4016782 351.511996,53.1416908 352.28,51.2216812 C353.048004,49.3016716 353.671998,47.9936847 354.152,47.2976812 C354.344001,47.1776806 354.547999,47.1176812 354.764,47.1176812 C355.076002,47.1176812 355.339999,47.2256801 355.556,47.4416812 C355.700001,47.5376817 355.772,47.7176799 355.772,47.9816812 C355.772,48.2216824 355.682001,48.5756788 355.502,49.0436812 C355.321999,49.5116835 355.016002,50.2016766 354.584,51.1136812 C354.488,51.3056821 354.326001,51.6656785 354.098,52.1936812 C353.869999,52.7216838 353.756,53.0336807 353.756,53.1296812 C353.756,53.1776814 353.768,53.2016812 353.792,53.2016812 C353.84,53.2016812 353.888,53.1836814 353.936,53.1476812 C353.984,53.111681 354.032,53.0816813 354.08,53.0576812 C354.344001,52.6016789 354.985995,51.9776851 356.006,51.1856812 C357.026005,50.3936772 357.727998,49.9016821 358.112,49.7096812 C358.280001,49.6136807 358.495999,49.5176817 358.76,49.4216812 C359.024001,49.3256807 359.204,49.2536814 359.3,49.2056812 C359.684002,49.0136802 360.139997,48.9176812 360.668,48.9176812 C361.004002,48.9176812 361.297999,48.9716806 361.55,49.0796812 C361.802001,49.1876817 361.976,49.3496801 362.072,49.5656812 C362.096,49.733682 362.161999,49.8656807 362.27,49.9616812 C362.378001,50.0576817 362.456,50.1176812 362.504,50.1416812 C362.576,50.1416812 362.624,50.1716809 362.648,50.2316812 C362.672,50.2916815 362.684,50.3336811 362.684,50.3576812 C362.684,50.525682 362.588001,50.627681 362.396,50.6636812 C362.203999,50.6996814 361.856003,50.7296811 361.352,50.7536812 C361.087999,50.7776813 360.812001,50.8376807 360.524,50.9336812 C360.235999,51.0296817 359.948001,51.1496805 359.66,51.2936812 C358.315993,52.061685 357.314003,52.661679 356.654,53.0936812 C355.993997,53.5256833 355.328003,54.1136775 354.656,54.8576812 C354.391999,55.1456826 354.044002,55.6616775 353.612,56.4056812 C353.443999,56.573682 353.270001,57.0116776 353.09,57.7196812 C352.909999,58.4276847 352.82,58.8656803 352.82,59.0336812 C352.796,59.1056815 352.748,59.2436802 352.676,59.4476812 C352.604,59.6516822 352.496001,59.8496802 352.352,60.0416812 C352.063999,60.4256831 351.824001,60.6176812 351.632,60.6176812 C351.415999,60.6176812 351.128002,60.4256831 350.768,60.0416812 Z" id="Wemakeyouhappier" fill="#BF476D" fill-rule="nonzero" transform="translate(184.898000, 53.678681) rotate(-8.000000) translate(-184.898000, -53.678681) "></path>
                </g>
            </g>
        </g>
    </g>
</svg>